<mxfile host="app.diagrams.net" modified="2024-04-21T12:13:35.903Z" agent="Mozilla/5.0 (Windows NT 10.0; Win64; x64) AppleWebKit/537.36 (KHTML, like Gecko) Chrome/124.0.0.0 Safari/537.36" version="24.2.5" etag="EHsfpms_7GxIqlZsRQBt" type="github">
  <diagram name="第 1 页" id="dnqk1Ci8JgL7DliJXd1Z">
    <mxGraphModel>
      <root>
        <mxCell id="0" />
        <mxCell id="1" parent="0" />
      </root>
    </mxGraphModel>
  </diagram>
</mxfile>
